<svg xmlns="http://www.w3.org/2000/svg" width="252" height="181.2" viewBox="0 0 252 181.2" fill="none">
  <!-- Brand pattern: the outlined "s" of the logo in staggered columns. Line only, so the colour behind it comes from CSS. Tile it with the .supera-pattern utility. -->
  <defs>
    <path id="s" d="M23 0.1L21.7 0.2L21.2 0.5L20.6 1.3L20.4 2.3L20.3 8.3L20.6 11.8L21 12.6L22.4 14.1L22.4 14.8L21.7 15.6L17.9 18.1L14.5 21L12.5 23.1L10.2 26.1L8.2 29.1L6.2 34.1L5.3 36.8L4.9 40.8L4.8 45.1L4.8 47.3L5.4 51.8L7.2 56.7L8.2 58.8L9.7 61.4L12.5 65L15.5 67.8L18.5 70L21.2 71.7L27.5 74.5L32.5 76L34 76.7L40.3 78.1L41.7 78.8L44 78.9L49.7 80L51.7 80.7L55 81.4L58 81.7L62 82.8L64.2 83L65.7 83.5L70.2 84.3L75 85.9L78.5 88.3L79.3 89.1L80 91.1L80.2 94.1L79.6 96.1L78.9 97.3L76.8 99.3L74.7 100.7L73.2 101.4L69.7 102.4L66.2 102.9L62 103L58.2 102.5L55 101.5L53 100.4L51.2 99.2L49.6 97.6L47.4 94.6L46.8 92.8L45.1 89.3L44.6 88.8L43.7 88.5L38.5 88.7L35.5 89.3L30.7 89.4L21.2 90.5L14.7 90.7L12 91.2L1.7 92.1L0.5 92.8L0 93.8L1.2 98.8L2 100.3L3.2 104.1L4.3 106.3L8.2 112.1L11.2 115.3L14.5 118.4L18.2 120.7L20.5 121.8L21.5 122.6L24 123.6L25.7 124L28.7 125.3L31 125.7L34 126.7L36.5 126.9L38.5 127.5L42 127.9L52.7 128.8L58 128.9L67.7 128.9L72.5 128.7L75.2 128.3L79.5 128.1L83.5 127.5L85.2 127L87.5 126.7L89 126.1L92.7 125.3L95.1 124.1L97.2 123.5L99.2 122.6L102.9 120.6L106.5 118.3L109 116.2L112.9 112.3L114.6 110.3L115 109.3L115.1 68.3L114.8 66.8L111 62.9L108.2 60.8L102.5 57.8L95.7 55.1L87.5 52.9L82.7 52.2L77.5 50.9L74.2 50.6L69.5 49.7L67 49.5L64.7 48.8L56 47.4L54 46.7L51.5 46.4L49.2 45.4L47.1 43.6L46 41.6L45.7 40.6L45.7 39.3L45.9 38.3L46.4 37.3L47.7 35.5L48.7 35L49.7 35L54.5 37.4L56.7 37.9L58.5 38.7L59.2 38.3L60.1 37.1L60.1 2.8L59.9 1.3L58.7 0.2L57.7 0Z" stroke="#fff" stroke-width="0.9" stroke-linejoin="round"/>
  </defs>
  <use href="#s" x="5.5" y="26.1"/>
  <use href="#s" x="131.5" y="116.7"/>
  <use href="#s" x="131.5" y="-64.5"/>
</svg>
